<?xml version="1.0" encoding="utf-8"?>
<!-- Generator: Adobe Illustrator 23.0.3, SVG Export Plug-In . SVG Version: 6.00 Build 0)  -->
<svg version="1.1" id="Layer_1" xmlns="http://www.w3.org/2000/svg" xmlns:xlink="http://www.w3.org/1999/xlink" x="0px" y="0px"
	 viewBox="0 0 1920 1920" style="enable-background:new 0 0 1920 1920;" xml:space="preserve">
<style type="text/css">
	.st0{display:none;}
	.st1{display:inline;fill:#00C1D0;}
	.st2{fill:#FFFFFF;}
	.st3{display:none;fill:#FFFFFF;}
	.st4{display:none;opacity:0.8;fill:#FFFFFF;}
</style>
<g class="st0">
	<rect class="st1" width="1920" height="1920"/>
</g>
<path class="st2" d="M960,598c48.9,0,96.3,9.6,140.9,28.4c43.1,18.2,81.8,44.3,115.1,77.6c33.3,33.3,59.4,72,77.6,115.1
	c18.9,44.6,28.4,92,28.4,140.9s-9.6,96.3-28.4,140.9c-18.2,43.1-44.3,81.8-77.6,115.1c-33.3,33.3-72,59.4-115.1,77.6
	c-44.6,18.9-92,28.4-140.9,28.4s-96.3-9.6-140.9-28.4c-43.1-18.2-81.8-44.3-115.1-77.6c-33.3-33.3-59.4-72-77.6-115.1
	c-18.9-44.6-28.4-92-28.4-140.9s9.6-96.3,28.4-140.9C644.6,776,670.8,737.3,704,704c33.3-33.3,72-59.4,115.1-77.6
	C863.7,607.6,911.1,598,960,598 M960,518c-244.1,0-442,197.9-442,442s197.9,442,442,442s442-197.9,442-442S1204.1,518,960,518
	L960,518z"/>
<path class="st3" d="M960,395c76.3,0,150.3,14.9,219.9,44.4c33.5,14.2,65.7,31.7,95.9,52.1c29.9,20.2,58.1,43.5,83.7,69
	c25.6,25.6,48.8,53.7,69,83.7c20.4,30.2,37.9,62.5,52.1,95.9c29.4,69.6,44.4,143.6,44.4,219.9s-14.9,150.3-44.4,219.9
	c-14.2,33.5-31.7,65.7-52.1,95.9c-20.2,29.9-43.5,58.1-69,83.7c-25.6,25.6-53.7,48.8-83.7,69c-30.2,20.4-62.5,37.9-95.9,52.1
	c-69.6,29.4-143.6,44.4-219.9,44.4s-150.3-14.9-219.9-44.4c-33.5-14.2-65.7-31.7-95.9-52.1c-29.9-20.2-58.1-43.5-83.7-69
	c-25.6-25.6-48.8-53.7-69-83.7c-20.4-30.2-37.9-62.5-52.1-95.9C409.9,1110.3,395,1036.3,395,960s14.9-150.3,44.4-219.9
	c14.2-33.5,31.7-65.7,52.1-95.9c20.2-29.9,43.5-58.1,69-83.7c25.6-25.6,53.7-48.8,83.7-69c30.2-20.4,62.5-37.9,95.9-52.1
	C809.7,409.9,883.7,395,960,395 M960,315c-356.2,0-645,288.8-645,645s288.8,645,645,645s645-288.8,645-645S1316.2,315,960,315
	L960,315z"/>
<path class="st4" d="M960,214c100.7,0,198.4,19.7,290.4,58.6c44.2,18.7,86.8,41.8,126.7,68.8c39.5,26.7,76.7,57.4,110.5,91.1
	s64.4,70.9,91.1,110.5c26.9,39.9,50.1,82.5,68.8,126.7c38.9,91.9,58.6,189.6,58.6,290.4s-19.7,198.4-58.6,290.4
	c-18.7,44.2-41.8,86.8-68.8,126.7c-26.7,39.5-57.4,76.7-91.1,110.5s-70.9,64.4-110.5,91.1c-39.9,26.9-82.5,50.1-126.7,68.8
	c-91.9,38.9-189.6,58.6-290.4,58.6s-198.4-19.7-290.4-58.6c-44.2-18.7-86.8-41.8-126.7-68.8c-39.5-26.7-76.7-57.4-110.5-91.1
	s-64.4-70.9-91.1-110.5c-26.9-39.9-50.1-82.5-68.8-126.7C233.7,1158.4,214,1060.7,214,960s19.7-198.4,58.6-290.4
	c18.7-44.2,41.8-86.8,68.8-126.7c26.7-39.5,57.4-76.7,91.1-110.5s70.9-64.4,110.5-91.1c39.9-26.9,82.5-50.1,126.7-68.8
	C761.6,233.7,859.3,214,960,214 M960,144c-450.7,0-816,365.3-816,816s365.3,816,816,816s816-365.3,816-816S1410.7,144,960,144
	L960,144z"/>
</svg>
